<?xml version="1.0" standalone="no"?>
<!DOCTYPE svg PUBLIC "-//W3C//DTD SVG 20010904//EN"
 "http://www.w3.org/TR/2001/REC-SVG-20010904/DTD/svg10.dtd">
<svg version="1.0" xmlns="http://www.w3.org/2000/svg"
 width="400.000000pt" height="400.000000pt" viewBox="0 0 400.000000 400.000000"
 preserveAspectRatio="xMidYMid meet">
<metadata>
Created by potrace 1.11, written by Peter Selinger 2001-2013
</metadata>
<g transform="translate(0.000000,400.000000) scale(0.100000,-0.100000)"
fill="#000000" stroke="none">
<path d="M2720 3821 c0 -22 -6 -44 -15 -51 -10 -8 -12 -17 -6 -24 6 -7 5 -27
-1 -52 -9 -31 -20 -46 -45 -59 -21 -12 -33 -26 -33 -39 0 -11 -12 -30 -27 -42
l-28 -22 50 -58 c72 -83 110 -134 128 -170 30 -59 5 -50 -103 36 -88 70 -130
83 -130 41 0 -10 -10 -31 -22 -47 -25 -31 -28 -41 -30 -102 -1 -30 -7 -47 -19
-55 -14 -8 -15 -15 -6 -34 13 -30 -13 -69 -67 -98 -38 -21 -71 -69 -59 -88 4
-6 0 -8 -11 -4 -27 11 -83 -18 -100 -52 -9 -16 -16 -44 -16 -61 0 -17 -5 -40
-11 -51 -10 -19 -11 -19 -29 3 -20 25 -17 24 -198 27 -141 3 -241 -16 -437
-81 -250 -83 -510 -267 -640 -452 -11 -16 -30 -41 -43 -57 -38 -46 -128 -236
-166 -349 -53 -160 -70 -394 -41 -575 22 -144 43 -224 77 -310 28 -70 45 -105
92 -191 41 -74 141 -209 201 -269 197 -198 528 -361 775 -381 131 -10 258 -12
300 -3 19 4 67 12 105 18 69 10 181 48 281 97 28 13 56 24 62 24 6 0 12 4 14
8 2 5 29 23 60 41 67 38 198 141 248 197 176 193 291 410 350 663 15 63 13 65
-71 83 l-56 11 41 61 c101 150 161 277 212 454 78 264 87 331 86 584 -1 233
-13 323 -69 518 -57 201 -74 240 -201 460 -47 82 -167 248 -206 285 -12 11
-50 54 -85 95 -72 84 -98 110 -106 110 -3 0 -5 -17 -5 -39z"/>
</g>
</svg>
